<?xml version="1.0" ?><svg class="social-icon" viewBox="0 0 512 512" xmlns="http://www.w3.org/2000/svg"><title/><g id="OUTLINE"><path d="M232.07812,342.34863l51.42872-42.85693a50.15822,50.15822,0,0,1,49.09472-8.57813l54.01563,19.64161A23.9295,23.9295,0,0,0,394.81836,312H496V296H448V40a24.02718,24.02718,0,0,0-24-24H88A24.02718,24.02718,0,0,0,64,40V295.939l-47.99414-.03662-.01172,16,125.39648.09571h.02051a23.92257,23.92257,0,0,0,7.58692-1.23194l67.07031-22.356A7.98483,7.98483,0,0,1,218.59668,288H272.304l-50.468,42.05713a30.53409,30.53409,0,1,0,39.09375,46.91455L287.509,354.823l70.83374,70.83374a8.97038,8.97038,0,1,1-12.68554,12.68652l-8-8-52-52-11.31446,11.31348,52,52a8.97038,8.97038,0,1,1-12.68554,12.68652l-8-8-36-36-11.31446,11.31348,36,36a8.97038,8.97038,0,1,1-12.68554,12.68652l-16-16-8.82276-8.82275a24.93341,24.93341,0,0,0-23.89819-22.46839,24.93,24.93,0,0,0-24-24,24.97914,24.97914,0,0,0-33.157-22.63989,24.96146,24.96146,0,0,0-41.43653-10.069l-16,16a24.89241,24.89241,0,0,0-7.30127,17.64832l-95.03369-.08924-.01562,16L64,415.94751V472a24.02718,24.02718,0,0,0,24,24h80V480H88a8.00917,8.00917,0,0,1-8-8V415.9624l36.83252.03467c.47583.56921.97583,1.12512,1.51025,1.65967a24.78956,24.78956,0,0,0,16.72095,7.29114,24.93,24.93,0,0,0,24,24,24.97914,24.97914,0,0,0,33.157,22.63989,24.97347,24.97347,0,0,0,34.853,14.7998l3.269,3.26917a24.95645,24.95645,0,0,0,40.481-7.54187,24.94649,24.94649,0,0,0,40.95557-10.5271,24.95607,24.95607,0,0,0,32-16A24.97147,24.97147,0,0,0,375.64648,424h14.61524a39.863,39.863,0,0,0,22.28125-6.78027l11.86816-7.96094a7.97971,7.97971,0,0,1,4.458-1.35645H432V472a8.00917,8.00917,0,0,1-8,8H344v16h80a24.02718,24.02718,0,0,0,24-24V407.90234h48v-16H428.86914A23.92589,23.92589,0,0,0,415.5,395.97021l-11.87012,7.96192A23.91571,23.91571,0,0,1,390.26172,408H363.314L322.113,366.79907A58.39889,58.39889,0,0,0,360.335,353.97656l4.66211-3.72949-9.99414-12.49414-4.66211,3.72949a42.517,42.517,0,0,1-56.68359-3.13916l-5.166-5.166-37.80469,31.50293a14.53419,14.53419,0,0,1-18.6084-22.33155ZM218.59668,272a23.93475,23.93475,0,0,0-7.58887,1.23193l-67.07129,22.356a7.95493,7.95493,0,0,1-2.52636.41016h-.00684L80,295.95117V40a8.00917,8.00917,0,0,1,8-8H424a8.00917,8.00917,0,0,1,8,8V296H394.81836a7.97122,7.97122,0,0,1-2.7334-.48193l-54.01465-19.64161A65.822,65.822,0,0,0,312,272.0332V272ZM136,408.9707a8.9707,8.9707,0,0,1-6.34277-15.314l16-16a8.97038,8.97038,0,0,1,12.68554,12.68652l-16,16A8.91031,8.91031,0,0,1,136,408.9707Zm24,24a8.9707,8.9707,0,0,1-6.34277-15.314l16-16,8-8a8.97038,8.97038,0,0,1,12.68554,12.68652l-24,24A8.91031,8.91031,0,0,1,160,432.9707Zm30.34277,21.37256a8.97038,8.97038,0,0,1-12.68554-12.68652l24-24a8.97038,8.97038,0,0,1,12.68554,12.68652l-16,16Zm32,16a8.97038,8.97038,0,0,1-12.68554-12.68652l16-16a8.97038,8.97038,0,0,1,12.68554,12.68652Zm32,8a8.9696,8.9696,0,0,1-12.68554,0L239.314,476l10.34327-10.34326a25.06905,25.06905,0,0,0,2.18261-2.50293l2.50293,2.50293A8.98022,8.98022,0,0,1,254.34277,478.34326Z"/><rect height="16" width="96" x="104" y="208"/><rect height="16" width="40" x="128" y="240"/><rect height="16" width="96" x="312" y="208"/><rect height="16" width="40" x="336" y="240"/><rect height="16" width="112" x="200" y="56"/><rect height="16" width="304" x="104" y="96"/><rect height="16" width="304" x="104" y="128"/><rect height="16" width="168" x="104" y="160"/></g></svg>